<svg id="Laag_1" data-name="Laag 1" xmlns="http://www.w3.org/2000/svg" viewBox="0 0 424.96 837.46"><defs><style>.cls-1{fill:#e08114;}.cls-2{fill:#fedc06;}.cls-3{fill:#fff;}.cls-4{fill:none;stroke:#fff;stroke-miterlimit:10;stroke-width:6px;}</style></defs><title>frontlogo2</title><circle class="cls-1" cx="185.99" cy="319.49" r="148.15"/><path class="cls-2" d="M380.43,239.7c-.3,1.51-.62,3-.89,4.54q-2.23,12.66-4.44,25.33c-.56,3.21-1.15,6.41-1.67,9.63-.11.66-.31.85-1,.85q-21.75,0-43.51,0H256c.2-1.19.38-2.3.57-3.4q2.29-13.11,4.59-26.22.93-5.33,1.87-10.66a9,9,0,0,0,.07-1H380.43Z" transform="translate(-110.44 -0.71)"/><path class="cls-2" d="M365.67,331.62l-.88,5q-1.23,7-2.46,14l-2.46,14-2.47,14-2.32,13.14q-1.23,7-2.46,14c-.41,2.31-.8,4.63-1.23,6.94,0,.18-.3.36-.5.46s-.34,0-.52,0H231.47c.19-1.12.35-2.19.54-3.26q1.32-7.53,2.65-15.06,1.38-7.82,2.77-15.65c.82-4.68,1.63-9.35,2.46-14,.87-4.95,1.76-9.89,2.63-14.83s1.73-9.89,2.6-14.84c.2-1.13.38-2.27.62-3.39,0-.18.32-.34.52-.43a1.31,1.31,0,0,1,.52,0H365.67Z" transform="translate(-110.44 -0.71)"/><path class="cls-3" d="M268.82,326.29c.24-1.42.47-2.82.72-4.22q2-11.41,4-22.81c.09-.49.22-1,.26-1.48s.23-.63.7-.63c4.73,0,9.47,0,14.2,0l.26,0,5.11,12.92h.18l2.3-13.06h15.08l-5.1,29.17h-.84c-4.48,0-9,0-13.45,0a1,1,0,0,1-1.08-.72c-1.49-3.82-3-7.63-4.56-11.44a1.56,1.56,0,0,0-.42-.64c-.22,1.24-.45,2.49-.67,3.73-.51,2.89-1,5.78-1.5,8.67-.06.38-.17.57-.6.56-4.73,0-9.47,0-14.2,0A2.82,2.82,0,0,1,268.82,326.29Z" transform="translate(-110.44 -0.71)"/><path class="cls-3" d="M228.44,318.72,227,326.28H201l5.08-29h17.12l-3.75,21.49Z" transform="translate(-110.44 -0.71)"/><path class="cls-3" d="M243.14,326.31l1.38-7.42c.95,0,1.84,0,2.73,0,1.19,0,1.58-.27,1.77-1.32q1.75-10,3.52-20.06c0-.12.05-.24.09-.39h16.53c-.6,3.47-1.19,6.9-1.79,10.33s-1.17,6.66-1.76,10c-.75,4.22-4.33,8.13-8.22,8.8a27.72,27.72,0,0,1-4.69.2c-3,0-5.93-.06-8.89-.1Z" transform="translate(-110.44 -0.71)"/><path class="cls-3" d="M231.8,297.12h16.56l-3.59,20.57H228.2Z" transform="translate(-110.44 -0.71)"/><path class="cls-3" d="M255.45,284.95h36.1l-1.3,7.46h-36.1Z" transform="translate(-110.44 -0.71)"/><path class="cls-3" d="M312.63,292.42H290.91l1.31-7.48h21.72Z" transform="translate(-110.44 -0.71)"/><path class="cls-3" d="M313.52,292.41l1.31-7.46h13.37l-1.3,7.46Z" transform="translate(-110.44 -0.71)"/><path class="cls-3" d="M232.56,292.43l1.26-7.47a5.43,5.43,0,0,1,.57-.06c2.29,0,4.58,0,6.88,0a1.09,1.09,0,0,1,1,.58,5.05,5.05,0,0,1,.57,4.46,3.32,3.32,0,0,1-3.43,2.46Zm4.42-2.09c.76.07,1.44.29,2-.41a1.91,1.91,0,0,0,.36-2,1.65,1.65,0,0,0-1.8-.85Z" transform="translate(-110.44 -0.71)"/><path class="cls-3" d="M327.94,292.4l1.34-7.45h8L336,292.4Z" transform="translate(-110.44 -0.71)"/><path class="cls-3" d="M337,292.42l1.33-7.47h5.3l-1.33,7.47Z" transform="translate(-110.44 -0.71)"/><path class="cls-3" d="M244.28,284.91h6l-.26,1.81c-.5,0-1,0-1.48,0-.69-.06-1,.17-.81.93l1.1.17-.24,1.38-1.25.11-.2,1.31h2.1l-.27,1.78H243Z" transform="translate(-110.44 -0.71)"/><path class="cls-3" d="M345.1,284.94h3.24L347,292.4h-3.25Z" transform="translate(-110.44 -0.71)"/><path class="cls-3" d="M351,292.42h-2.42c.2-1.11.39-2.17.58-3.24.22-1.23.45-2.46.64-3.7.07-.42.21-.61.66-.58s1.19,0,1.87,0Z" transform="translate(-110.44 -0.71)"/><path class="cls-3" d="M353.83,284.92h2l-1.34,7.46h-2Z" transform="translate(-110.44 -0.71)"/><path class="cls-3" d="M357.49,292.41h-1.33l1.33-7.45h1.32Z" transform="translate(-110.44 -0.71)"/><path class="cls-3" d="M362.35,285l-1.3,7.45h-1.32L361,285Z" transform="translate(-110.44 -0.71)"/><path class="cls-3" d="M363.5,292.4l1.39-7.54h.81l-1.38,7.54Z" transform="translate(-110.44 -0.71)"/><path class="cls-3" d="M367.6,292.42h-.81l1.35-7.5.82,0Z" transform="translate(-110.44 -0.71)"/><path class="cls-3" d="M372.9,284.92c-.43,2.39-.85,4.77-1.31,7.16,0,.17-.33.29-.5.44l-.16-.16c.43-2.39.84-4.77,1.3-7.15,0-.17.33-.3.51-.45Z" transform="translate(-110.44 -0.71)"/><ellipse class="cls-4" cx="16.37" cy="82.74" rx="13.37" ry="13.47"/><ellipse class="cls-4" cx="53.28" cy="723.5" rx="13.37" ry="13.47"/><ellipse class="cls-4" cx="53.28" cy="820.99" rx="13.37" ry="13.47"/><ellipse class="cls-4" cx="306.59" cy="820.99" rx="13.37" ry="13.47"/><ellipse class="cls-4" cx="185.34" cy="319.1" rx="133.34" ry="134.37"/><ellipse class="cls-4" cx="119.47" cy="82.74" rx="13.37" ry="13.47"/><line class="cls-4" x1="29.73" y1="82.74" x2="105.47" y2="82.1"/><line class="cls-4" x1="132.84" y1="82.74" x2="186.3" y2="82.74"/><line class="cls-4" x1="186.93" y1="183.44" x2="186.93" y2="81.14"/><line class="cls-4" x1="186.3" y1="681.17" x2="186.61" y2="725.74"/><line class="cls-4" x1="68.24" y1="725.1" x2="188.52" y2="725.1"/><line class="cls-4" x1="53.28" y1="736.97" x2="53.28" y2="807.52"/><line class="cls-4" x1="66.64" y1="820.99" x2="293.22" y2="820.99"/><line class="cls-4" x1="16.37" y1="69.27" x2="16.37"/><line class="cls-4" x1="319.95" y1="820.99" x2="424.96" y2="820.99"/></svg>